<svg width="1352" height="714" viewBox="0 0 1352 714" fill="none" xmlns="http://www.w3.org/2000/svg">
    <path d="M0.5 540.103V540.603H1H192.49C247.417 540.603 294.628 529.797 334.104 508.164C373.756 486.531 404.159 455.485 425.305 415.035C446.627 374.586 457.277 326.244 457.277 270.025C457.277 213.981 446.627 165.813 425.304 125.539C404.158 85.2673 373.933 54.3972 334.634 32.9398C295.333 11.3061 248.473 0.5 194.072 0.5H1H0.5V1V540.103ZM324.707 368.264L324.707 368.266C313.145 393.442 295.812 412.045 272.706 424.099C249.761 435.986 221.447 441.943 187.742 441.943H115.708V99.1598H188.006C221.71 99.1598 250.024 105.117 272.97 117.004C295.899 128.882 313.144 147.397 324.707 172.574L324.708 172.577C336.448 197.759 342.333 230.233 342.333 270.025C342.333 310.169 336.448 342.906 324.707 368.264ZM616.038 523.164L616.042 523.166C646.199 540.062 682.158 548.5 723.9 548.5C757.36 548.5 786.878 543.403 812.445 533.197L812.447 533.196C838.182 522.817 859.175 508.384 875.41 489.892C891.821 471.224 902.674 449.385 907.966 424.384L908.085 423.819L907.51 423.781L803.588 416.937L803.219 416.913L803.088 417.258C799.244 427.372 793.658 435.906 786.33 442.87C779.001 449.836 770.186 455.065 759.875 458.553C749.559 462.043 738.184 463.792 725.746 463.792C707.002 463.792 690.827 459.858 677.2 452.013C663.571 444.165 652.998 433.006 645.48 418.522C638.167 404.099 634.487 386.974 634.458 367.132H909.851H910.351V366.632V335.833C910.351 301.393 905.509 271.322 895.812 245.632C886.119 219.776 872.542 198.302 855.076 181.223C837.792 164.149 817.509 151.388 794.233 142.94C771.138 134.319 746.197 130.011 719.416 130.011C679.601 130.011 644.869 138.803 615.239 156.405L615.238 156.405C585.79 174.004 562.955 198.555 546.736 230.048C530.517 261.543 522.415 298.125 522.415 339.782C522.415 382.489 530.516 419.512 546.737 450.833L546.737 450.834C562.958 481.98 586.061 506.093 616.038 523.164ZM803.582 296.638H634.589C635.328 282.398 639.044 269.4 645.734 257.637L645.735 257.634C653.078 244.55 663.214 234.172 676.151 226.495L676.153 226.494C689.255 218.648 704.286 214.719 721.262 214.719C737.54 214.719 751.781 218.3 764.003 225.444L764.01 225.448C776.415 232.423 786.108 242.097 793.097 254.477C800.011 266.724 803.51 280.773 803.582 296.638ZM1350.47 135.941L1350.7 135.276H1350H1231.04H1230.67L1230.56 135.637L1146.79 424.57H1143.32L1059.29 135.636L1059.18 135.276H1058.81H940.117H939.412L939.645 135.941L1081.28 540.268L1081.4 540.603H1081.76H1208.36H1208.72L1208.83 540.268L1350.47 135.941Z"
          stroke="black" stroke-opacity="0.45"/>
    <path d="M0.5 706.128V706.628H1H166.953C214.565 706.628 255.492 697.223 289.716 678.391C324.091 659.56 350.448 632.534 368.78 597.325C387.265 562.115 396.497 520.036 396.497 471.106C396.497 422.329 387.265 380.402 368.78 345.345C350.449 310.289 324.245 283.416 290.175 264.738C256.103 245.905 215.48 236.5 168.325 236.5H1H0.5V237V706.128ZM281.478 556.567L281.477 556.569C271.463 578.465 256.451 594.642 236.441 605.124C216.568 615.462 192.041 620.644 162.839 620.644H100.478V322.484H163.067C192.269 322.484 216.796 327.666 236.67 338.004C256.527 348.333 271.462 364.433 281.477 386.33L281.479 386.333C291.648 408.235 296.747 436.484 296.747 471.106C296.747 506.033 291.648 534.512 281.478 556.567ZM692.144 556.319V556.323C692.296 571.984 689.185 585.098 682.843 595.69L682.84 595.695C676.635 606.311 668.471 614.337 658.348 619.788C648.212 625.093 637.321 627.745 625.668 627.745C607.349 627.745 592.786 621.759 581.921 609.813C571.053 597.863 565.516 581.577 565.364 560.896V354.282V353.782H564.864H467.487H466.987V354.282V578.309V578.312C467.14 605.858 472.179 629.532 482.127 649.315L482.128 649.318C492.226 669.095 506.232 684.362 524.148 695.103C542.065 705.846 562.805 711.209 586.352 711.209C612.796 711.209 635.224 704.928 653.608 692.34C672.035 679.825 685.241 663.282 693.216 642.718H696.03V706.128V706.628H696.53H790.022H790.522V706.128V354.282V353.782H790.022H692.644H692.144V354.282V556.319ZM934.411 691.444L934.414 691.445C960.562 706.156 991.738 713.5 1027.92 713.5C1056.93 713.5 1082.52 709.064 1104.68 700.178L1104.69 700.178C1127 691.142 1145.2 678.577 1159.28 662.477C1173.51 646.223 1182.92 627.208 1187.51 605.442L1187.63 604.878L1187.05 604.84L1096.99 598.884L1096.62 598.86L1096.49 599.206C1093.16 607.998 1088.32 615.417 1081.98 621.47C1075.64 627.524 1068.01 632.07 1059.08 635.102C1050.15 638.136 1040.3 639.657 1029.52 639.657C1013.29 639.657 999.282 636.236 987.484 629.416C975.685 622.595 966.532 612.895 960.022 600.303C953.697 587.778 950.508 572.906 950.475 555.673H1189.08H1189.58V555.173V528.372C1189.58 498.396 1185.38 472.22 1176.97 449.856C1168.57 427.348 1156.8 408.653 1141.65 393.783C1126.67 378.92 1109.08 367.811 1088.9 360.457C1068.88 352.951 1047.25 349.201 1024.04 349.201C989.52 349.201 959.408 356.854 933.717 372.178L933.716 372.179C908.184 387.499 888.386 408.873 874.325 436.289C860.263 463.706 853.24 495.551 853.24 531.808C853.24 568.98 860.262 601.208 874.325 628.475L874.326 628.476C888.389 655.589 908.42 676.582 934.411 691.444ZM1096.91 494.2H950.592C951.24 481.844 954.457 470.565 960.239 460.357L960.24 460.355C966.598 448.978 975.374 439.956 986.576 433.281L986.577 433.28C997.921 426.46 1010.94 423.044 1025.64 423.044C1039.73 423.044 1052.06 426.157 1062.64 432.367L1062.65 432.371C1073.39 438.434 1081.78 446.844 1087.83 457.607C1093.81 468.237 1096.84 480.43 1096.91 494.2ZM1350.5 237V236.5H1350H1252.62H1252.12V237V706.128V706.628H1252.62H1350H1350.5V706.128V237Z"
          stroke="black" stroke-opacity="0.45"/>
</svg>
