<svg width="150" height="293" viewBox="0 0 150 293" fill="none" xmlns="http://www.w3.org/2000/svg">
<path d="M0.5 94.0909V94.5909H1H34C43.5203 94.5909 51.728 92.7141 58.6043 88.9383C65.5099 85.163 70.8072 79.7421 74.4886 72.6861C78.2004 65.6301 80.0455 57.2136 80.0455 47.4545C80.0455 37.7251 78.2001 29.3381 74.4875 22.3119C70.8064 15.2877 65.5401 9.89762 58.6954 6.15275C51.8498 2.37706 43.7026 0.5 34.2727 0.5H1H0.5V1V94.0909ZM56.4097 64.2448L56.4091 64.2462C54.4522 68.5159 51.5273 71.6571 47.632 73.6933C43.7519 75.7071 38.9425 76.7273 33.1818 76.7273H21.1818V18.3636H33.2273C38.9886 18.3636 43.7984 19.3841 47.6787 21.3983C51.5421 23.4037 54.4519 26.5289 56.4091 30.7992L56.4103 30.8018C58.3996 35.0774 59.4091 40.6196 59.4091 47.4545C59.4091 54.3506 58.3995 59.9387 56.4097 64.2448Z" stroke="black" stroke-opacity="0.45"/>
<path d="M22.8431 161.252L22.8461 161.254C28.1168 164.213 34.3866 165.682 41.6364 165.682C47.4441 165.682 52.585 164.795 57.0493 163.01L57.051 163.009C61.5384 161.196 65.2122 158.668 68.0579 155.42C70.9342 152.142 72.8357 148.306 73.7619 143.922L73.8812 143.357L73.3057 143.319L55.3966 142.137L55.0274 142.113L54.8961 142.459C54.2541 144.152 53.3245 145.572 52.1097 146.729C50.8934 147.887 49.4274 148.76 47.7031 149.345C45.9736 149.931 44.059 150.227 41.9545 150.227C38.7833 150.227 36.0698 149.561 33.7953 148.249C31.5183 146.935 29.7512 145.068 28.4904 142.636C27.3163 140.314 26.6937 137.562 26.6402 134.364H73.6818H74.1818V133.864V128.545C74.1818 122.561 73.3423 117.317 71.6497 112.824C69.961 108.311 67.5908 104.55 64.5327 101.553C61.5114 98.5627 57.9656 96.3277 53.9003 94.8491C49.8705 93.3421 45.5235 92.5909 40.8636 92.5909C33.9394 92.5909 27.8785 94.1236 22.6988 97.2067L22.6977 97.2074C17.5542 100.287 13.5661 104.585 10.7371 110.09C7.90696 115.596 6.5 121.98 6.5 129.227C6.5 136.654 7.90607 143.115 10.7376 148.593L10.7382 148.594C13.5695 154.041 17.6064 158.264 22.8431 161.252ZM54.9478 121.364H26.6866C26.8603 119.135 27.4747 117.099 28.5258 115.247L28.5272 115.244C29.7569 113.048 31.4521 111.309 33.6192 110.021L33.6209 110.02C35.8076 108.708 38.3229 108.045 41.1818 108.045C43.9244 108.045 46.3043 108.649 48.3382 109.841L48.3382 109.841L48.3455 109.845C50.4174 111.012 52.0335 112.628 53.2007 114.7C54.2934 116.639 54.8794 118.857 54.9478 121.364Z" stroke="black" stroke-opacity="0.45"/>
<path d="M76.1084 164.347L76.3409 163.682H75.6364H55.1364H54.7605L54.6561 164.043L40.318 213.595L25.9347 164.042L25.8301 163.682H25.4545H5H4.29552L4.52801 164.347L28.9371 234.165L29.0542 234.5H29.4091H51.2273H51.5821L51.6993 234.165L76.1084 164.347Z" stroke="black" stroke-opacity="0.45"/>
<path d="M69.5 94.0909V94.5909H70H103C112.52 94.5909 120.728 92.7141 127.604 88.9383C134.51 85.163 139.807 79.7421 143.489 72.6861C147.2 65.6301 149.045 57.2136 149.045 47.4545C149.045 37.7251 147.2 29.3381 143.488 22.3119C139.806 15.2877 134.54 9.89762 127.695 6.15275C120.85 2.37706 112.703 0.5 103.273 0.5H70H69.5V1V94.0909ZM125.41 64.2448L125.409 64.2462C123.452 68.5159 120.527 71.6571 116.632 73.6933C112.752 75.7071 107.943 76.7273 102.182 76.7273H90.1818V18.3636H102.227C107.989 18.3636 112.798 19.3841 116.679 21.3983C120.542 23.4037 123.452 26.5289 125.409 30.7992L125.41 30.8018C127.4 35.0774 128.409 40.6196 128.409 47.4545C128.409 54.3506 127.399 59.9387 125.41 64.2448Z" stroke="black" stroke-opacity="0.45"/>
<path d="M115.273 136.182L115.273 136.187C115.302 139.24 114.695 141.764 113.48 143.788L113.48 143.788L113.478 143.793C112.279 145.839 110.709 147.377 108.766 148.422C106.809 149.443 104.708 149.955 102.455 149.955C98.908 149.955 96.1254 148.803 94.0514 146.527C91.9737 144.247 90.8936 141.121 90.8636 137.089V96.0909V95.5909H90.3636H71H70.5V96.0909L70.5 140.545L70.5 140.548C70.5306 146.061 71.5416 150.823 73.5535 154.816L73.5549 154.819C75.5948 158.806 78.4305 161.893 82.0615 164.065C85.6942 166.239 89.8913 167.318 94.6364 167.318C99.9592 167.318 104.501 166.056 108.235 163.505C111.806 161.085 114.412 157.915 116.045 154.003V165.909V166.409H116.545H135.136H135.636V165.909V96.0909V95.5909H135.136H115.773H115.273V96.0909L115.273 136.182Z" stroke="black" stroke-opacity="0.45"/>
<path d="M86.8431 236.98L86.8461 236.981C92.1168 239.94 98.3866 241.409 105.636 241.409C111.444 241.409 116.585 240.523 121.049 238.737L121.051 238.736C125.538 236.923 129.212 234.396 132.058 231.148C134.934 227.869 136.836 224.033 137.762 219.649L137.881 219.085L137.306 219.047L119.397 217.865L119.027 217.84L118.896 218.186C118.254 219.879 117.325 221.299 116.11 222.456C114.893 223.615 113.427 224.487 111.703 225.072C109.974 225.658 108.059 225.955 105.955 225.955C102.783 225.955 100.07 225.288 97.7953 223.976C95.5183 222.662 93.7512 220.796 92.4904 218.363C91.3163 216.042 90.6937 213.289 90.6401 210.091H137.682H138.182V209.591V204.273C138.182 198.288 137.342 193.044 135.65 188.551C133.961 184.038 131.591 180.277 128.533 177.28C125.511 174.29 121.966 172.055 117.9 170.576C113.871 169.069 109.523 168.318 104.864 168.318C97.9394 168.318 91.8785 169.851 86.6988 172.934L86.6977 172.935C81.5542 176.015 77.5661 180.313 74.7371 185.817C71.907 191.323 70.5 197.707 70.5 204.955C70.5 212.381 71.9061 218.842 74.7376 224.321L74.7382 224.322C77.5695 229.769 81.6064 233.992 86.8431 236.98ZM118.948 197.091H90.6866C90.8603 194.863 91.4747 192.826 92.5258 190.974L92.5272 190.972C93.7569 188.776 95.4521 187.037 97.6192 185.748L97.6209 185.747C99.8076 184.435 102.323 183.773 105.182 183.773C107.924 183.773 110.304 184.377 112.338 185.568L112.338 185.568L112.345 185.572C114.417 186.739 116.033 188.355 117.201 190.427C118.293 192.367 118.879 194.584 118.948 197.091Z" stroke="black" stroke-opacity="0.45"/>
<path d="M99.4717 291.225L99.8252 291.579L100.179 291.225L142.316 249.088L142.669 248.734L142.316 248.381L130.841 236.906L130.488 236.553L130.134 236.906L102.268 264.773L48.2707 210.776L47.9171 210.422L47.5636 210.776L33.6464 224.693L33.2929 225.046L33.6464 225.4L99.4717 291.225Z" stroke="black" stroke-opacity="0.45"/>
</svg>
