<svg width="1351" height="1112" viewBox="0 0 1351 1112" fill="none" xmlns="http://www.w3.org/2000/svg">
    <g filter="url(#filter0_b_6_627)">
        <path d="M3.5 267.28V267.78H4H171.091H171.591V267.28V221.489V220.989H171.091H59.6872V4.59145V4.09145H59.1872H4H3.5V4.59145V267.28ZM259.288 267.78H259.652L259.764 267.434L279.015 207.88H372.533L391.746 267.434L391.858 267.78H392.222H451.36H452.06L451.833 267.118L361.851 4.42942L361.736 4.09145H361.378H290.26H289.902L289.787 4.42922L199.677 267.118L199.45 267.78H200.15H259.288ZM326.475 65.12L358.223 163.526H293.353L325.163 65.12H326.475ZM440.441 50.3824V50.8824H440.941H520.354V267.28V267.78H520.854H575.404H575.904V267.28V50.8824H655.317H655.817V50.3824V4.59145V4.09145H655.317H440.941H440.441V4.59145V50.3824ZM690.122 267.28V267.78H690.622H867.017H867.517V267.28V221.489V220.989H867.017H746.309V159.267H857.458H857.958V158.767V112.976V112.476H857.458H746.309V50.8824H866.507H867.007V50.3824V4.59145V4.09145H866.507H690.622H690.122V4.59145V267.28ZM1051.49 80.1892L1051.53 80.6401H1051.98H1104.88H1105.38L1105.38 80.132C1105.12 64.3952 1100.93 50.5313 1092.8 38.5576C1084.67 26.5879 1073.29 17.2538 1058.69 10.5503C1044.17 3.8446 1027.19 0.5 1007.76 0.5C988.665 0.5 971.6 3.84542 956.572 10.5481C941.546 17.2496 929.705 26.5802 921.066 38.5458L921.064 38.5477C912.501 50.5264 908.268 64.5259 908.353 80.5254C908.268 100.057 914.644 115.634 927.509 127.201C940.332 138.729 957.79 147.182 979.852 152.583C979.852 152.583 979.853 152.583 979.853 152.583L1008.27 159.765L1008.28 159.766C1017.77 162.071 1025.78 164.628 1032.28 167.435L1032.29 167.436C1038.87 170.238 1043.81 173.619 1047.14 177.56L1047.14 177.565C1050.54 181.483 1052.25 186.322 1052.25 192.116C1052.25 198.335 1050.37 203.827 1046.62 208.611C1042.86 213.401 1037.54 217.159 1030.64 219.87L1030.64 219.87C1023.83 222.578 1015.78 223.939 1006.48 223.939C997.018 223.939 988.541 222.494 981.046 219.613C973.646 216.65 967.733 212.298 963.29 206.563C958.942 200.755 956.462 193.5 955.872 184.772L955.841 184.305H955.373H901.971H901.459L901.471 184.816C901.897 203.789 906.462 219.75 915.194 232.672L915.196 232.675C924.007 245.503 936.237 255.181 951.867 261.713L951.868 261.714C967.576 268.243 985.997 271.5 1007.12 271.5C1028.41 271.5 1046.62 268.286 1061.74 261.84L1061.74 261.839C1076.94 255.309 1088.57 246.147 1096.62 234.342C1104.76 222.449 1108.86 208.41 1108.94 192.247L1108.94 192.241C1108.86 181.237 1106.85 171.459 1102.91 162.919C1099.06 154.391 1093.62 146.982 1086.6 140.694C1079.59 134.414 1071.3 129.128 1061.75 124.834C1052.2 120.543 1041.72 117.113 1030.3 114.542C1030.3 114.541 1030.3 114.541 1030.3 114.541L1006.85 108.899L1006.85 108.897C1001.17 107.619 995.842 106.086 990.851 104.298C985.868 102.428 981.484 100.264 977.697 97.8077C973.928 95.2782 970.965 92.2929 968.798 88.8547C966.734 85.4451 965.775 81.4415 965.942 76.8233L965.942 76.8143V76.8052C965.942 71.2654 967.524 66.3246 970.688 61.9667C973.936 57.6089 978.612 54.1968 984.746 51.7446L984.751 51.7423C990.877 49.209 998.412 47.9323 1007.37 47.9323C1020.56 47.9323 1030.94 50.7826 1038.56 56.4279C1046.17 62.0657 1050.48 69.9702 1051.49 80.1892ZM1135.12 50.3824V50.8824H1135.62H1215.04V267.28V267.78H1215.54H1270.09H1270.59V267.28V50.8824H1350H1350.5V50.3824V4.59145V4.09145H1350H1135.62H1135.12V4.59145V50.3824Z"
              stroke="black" stroke-opacity="0.45"/>
    </g>
    <defs>
        <filter id="filter0_b_6_627" x="-1" y="-4" width="1356" height="280" filterUnits="userSpaceOnUse"
                color-interpolation-filters="sRGB">
            <feFlood flood-opacity="0" result="BackgroundImageFix"/>
            <feGaussianBlur in="BackgroundImageFix" stdDeviation="2"/>
            <feComposite in2="SourceAlpha" operator="in" result="effect1_backgroundBlur_6_627"/>
            <feBlend mode="normal" in="SourceGraphic" in2="effect1_backgroundBlur_6_627" result="shape"/>
        </filter>
        <filter id="filter1_b_6_627" x="-1" y="276" width="1356" height="280" filterUnits="userSpaceOnUse"
                color-interpolation-filters="sRGB">
            <feFlood flood-opacity="0" result="BackgroundImageFix"/>
            <feGaussianBlur in="BackgroundImageFix" stdDeviation="2"/>
            <feComposite in2="SourceAlpha" operator="in" result="effect1_backgroundBlur_6_627"/>
            <feBlend mode="normal" in="SourceGraphic" in2="effect1_backgroundBlur_6_627" result="shape"/>
        </filter>

    </defs>
</svg>
