<svg width="126" height="377" viewBox="0 0 126 377" fill="none" xmlns="http://www.w3.org/2000/svg">
<path d="M0.5 94.0909V94.5909H1H34C43.5203 94.5909 51.728 92.7141 58.6043 88.9383C65.5099 85.163 70.8072 79.7421 74.4886 72.6861C78.2004 65.6301 80.0455 57.2136 80.0455 47.4545C80.0455 37.7251 78.2001 29.3381 74.4875 22.3119C70.8064 15.2877 65.5401 9.89762 58.6954 6.15275C51.8498 2.37706 43.7026 0.5 34.2727 0.5H1H0.5V1V94.0909ZM56.4097 64.2448L56.4091 64.2462C54.4522 68.5159 51.5273 71.6571 47.632 73.6933C43.7519 75.7071 38.9425 76.7273 33.1818 76.7273H21.1818V18.3636H33.2273C38.9886 18.3636 43.7984 19.3841 47.6787 21.3983C51.5421 23.4037 54.4519 26.5289 56.4091 30.7992L56.4103 30.8018C58.3996 35.0774 59.4091 40.6196 59.4091 47.4545C59.4091 54.3506 58.3995 59.9387 56.4097 64.2448Z" stroke="black" stroke-opacity="0.45"/>
<path d="M22.8431 181.252L22.8461 181.254C28.1168 184.213 34.3866 185.682 41.6364 185.682C47.4441 185.682 52.585 184.795 57.0493 183.01L57.051 183.009C61.5384 181.196 65.2122 178.668 68.0579 175.42C70.9342 172.142 72.8357 168.306 73.7619 163.922L73.8812 163.357L73.3057 163.319L55.3966 162.137L55.0274 162.113L54.8961 162.459C54.2541 164.152 53.3245 165.572 52.1097 166.729C50.8934 167.887 49.4274 168.76 47.7031 169.345C45.9736 169.931 44.059 170.227 41.9545 170.227C38.7833 170.227 36.0698 169.561 33.7953 168.249C31.5183 166.935 29.7512 165.068 28.4904 162.636C27.3163 160.314 26.6937 157.562 26.6402 154.364H73.6818H74.1818V153.864V148.545C74.1818 142.561 73.3423 137.317 71.6497 132.824C69.961 128.311 67.5908 124.55 64.5327 121.553C61.5114 118.563 57.9656 116.328 53.9003 114.849C49.8705 113.342 45.5235 112.591 40.8636 112.591C33.9394 112.591 27.8785 114.124 22.6988 117.207L22.6977 117.207C17.5542 120.287 13.5661 124.585 10.7371 130.09C7.90696 135.596 6.5 141.98 6.5 149.227C6.5 156.654 7.90607 163.115 10.7376 168.593L10.7382 168.594C13.5695 174.041 17.6064 178.264 22.8431 181.252ZM54.9478 141.364H26.6866C26.8603 139.135 27.4747 137.099 28.5258 135.247L28.5272 135.244C29.7569 133.048 31.4521 131.309 33.6192 130.021L33.6209 130.02C35.8076 128.708 38.3229 128.045 41.1818 128.045C43.9244 128.045 46.3043 128.649 48.3382 129.841L48.3382 129.841L48.3455 129.845C50.4174 131.012 52.0335 132.628 53.2007 134.7C54.2934 136.639 54.8794 138.857 54.9478 141.364Z" stroke="black" stroke-opacity="0.45"/>
<path d="M76.1084 204.347L76.3409 203.682H75.6364H55.1364H54.7605L54.6561 204.043L40.318 253.595L25.9347 204.042L25.8301 203.682H25.4545H5H4.29552L4.52801 204.347L28.9371 274.165L29.0542 274.5H29.4091H51.2273H51.5821L51.6993 274.165L76.1084 204.347Z" stroke="black" stroke-opacity="0.45"/>
<path d="M45.5 140.182V140.682H46H79C88.5203 140.682 96.728 138.805 103.604 135.029C110.51 131.254 115.807 125.833 119.489 118.777C123.2 111.721 125.045 103.305 125.045 93.5455C125.045 83.816 123.2 75.429 119.488 68.4028C115.806 61.3787 110.54 55.9886 103.695 52.2437C96.8498 48.468 88.7026 46.5909 79.2727 46.5909H46H45.5V47.0909V140.182ZM101.41 110.336L101.409 110.337C99.4522 114.607 96.5273 117.748 92.632 119.784C88.7519 121.798 83.9425 122.818 78.1818 122.818H66.1818V64.4546H78.2273C83.9886 64.4546 88.7984 65.475 92.6787 67.4893C96.5421 69.4947 99.4519 72.6199 101.409 76.8902L101.41 76.8928C103.4 81.1683 104.409 86.7105 104.409 93.5455C104.409 100.442 103.399 106.03 101.41 110.336Z" stroke="black" stroke-opacity="0.45"/>
<path d="M91.2727 199.273L91.2728 199.278C91.3024 202.331 90.6946 204.855 89.4803 206.879L89.4803 206.879L89.4776 206.884C88.279 208.93 86.7088 210.468 84.7662 211.513C82.8094 212.534 80.7079 213.046 78.4545 213.046C74.908 213.046 72.1254 211.894 70.0514 209.618C67.9737 207.338 66.8936 204.212 66.8636 200.18V159.182V158.682H66.3636H47H46.5V159.182L46.5 203.636L46.5 203.639C46.5306 209.152 47.5416 213.914 49.5535 217.907L49.5549 217.91C51.5948 221.897 54.4305 224.984 58.0615 227.156C61.6942 229.33 65.8913 230.409 70.6364 230.409C75.9592 230.409 80.5012 229.147 84.2353 226.596C87.8056 224.176 90.412 221.006 92.0455 217.094V229V229.5H92.5455H111.136H111.636V229V159.182V158.682H111.136H91.7727H91.2727V159.182L91.2727 199.273Z" stroke="black" stroke-opacity="0.45"/>
<path d="M62.8431 317.071L62.8461 317.072C68.1168 320.031 74.3866 321.5 81.6364 321.5C87.4442 321.5 92.5851 320.614 97.0493 318.828L97.051 318.827C101.538 317.014 105.212 314.486 108.058 311.239C110.934 307.96 112.836 304.124 113.762 299.74L113.881 299.176L113.306 299.138L95.3966 297.956L95.0274 297.931L94.8961 298.277C94.2541 299.97 93.3245 301.39 92.1097 302.547C90.8934 303.705 89.4274 304.578 87.7031 305.163C85.9736 305.749 84.059 306.046 81.9545 306.046C78.7833 306.046 76.0698 305.379 73.7953 304.067C71.5183 302.753 69.7512 300.887 68.4904 298.454C67.3163 296.132 66.6937 293.38 66.6401 290.182H113.682H114.182V289.682V284.364C114.182 278.379 113.342 273.135 111.65 268.642C109.961 264.129 107.591 260.368 104.533 257.371C101.511 254.381 97.9656 252.146 93.9003 250.667C89.8705 249.16 85.5235 248.409 80.8636 248.409C73.9394 248.409 67.8785 249.942 62.6988 253.025L62.6977 253.026C57.5542 256.106 53.5661 260.404 50.7371 265.908C47.907 271.414 46.5 277.798 46.5 285.046C46.5 292.472 47.9061 298.933 50.7376 304.411L50.7382 304.412C53.5695 309.86 57.6064 314.083 62.8431 317.071ZM94.9478 277.182H66.6866C66.8603 274.954 67.4747 272.917 68.5258 271.065L68.5272 271.063C69.7569 268.867 71.4521 267.127 73.6192 265.839L73.6209 265.838C75.8076 264.526 78.3229 263.864 81.1818 263.864C83.9244 263.864 86.3043 264.468 88.3382 265.659L88.3382 265.659L88.3455 265.663C90.4174 266.83 92.0335 268.446 93.2007 270.518C94.2934 272.458 94.8794 274.675 94.9478 277.182Z" stroke="black" stroke-opacity="0.45"/>
<path d="M74.4717 375.316L74.8252 375.669L75.1788 375.316L117.316 333.179L117.669 332.825L117.316 332.472L105.841 320.997L105.488 320.644L105.134 320.997L77.2679 348.864L23.2707 294.866L22.9171 294.513L22.5636 294.866L8.64645 308.784L8.29289 309.137L8.64645 309.491L74.4717 375.316Z" stroke="black" stroke-opacity="0.45"/>
</svg>
